<?xml version="1.0" encoding="UTF-8" standalone="no"?>
<!-- Created with Inkscape (http://www.inkscape.org/) -->

<svg
   width="4487.6143mm"
   height="1053.2188mm"
   viewBox="0 0 4487.6143 1053.2188"
   version="1.1"
   id="svg887"
   inkscape:version="1.1.2 (0a00cf5339, 2022-02-04, custom)"
   sodipodi:docname="42ctf_logo_big_no_bg_full_white.svg"
   xmlns:inkscape="http://www.inkscape.org/namespaces/inkscape"
   xmlns:sodipodi="http://sodipodi.sourceforge.net/DTD/sodipodi-0.dtd"
   xmlns="http://www.w3.org/2000/svg"
   xmlns:svg="http://www.w3.org/2000/svg">
  <sodipodi:namedview
     id="namedview889"
     pagecolor="#505050"
     bordercolor="#eeeeee"
     borderopacity="1"
     inkscape:pageshadow="0"
     inkscape:pageopacity="0"
     inkscape:pagecheckerboard="0"
     inkscape:document-units="mm"
     showgrid="false"
     inkscape:zoom="0.092365554"
     inkscape:cx="3155.9384"
     inkscape:cy="1169.2671"
     inkscape:window-width="1856"
     inkscape:window-height="993"
     inkscape:window-x="29"
     inkscape:window-y="52"
     inkscape:window-maximized="1"
     inkscape:current-layer="text14333" />
  <defs
     id="defs884" />
  <g
     inkscape:label="Layer 1"
     inkscape:groupmode="layer"
     id="layer1"
     transform="translate(1823.5311,156.47152)">
    <g
       id="g28009"
       transform="matrix(1.0000013,0,0,0.99999497,-1790.2968,3673.4424)">
      <g
         id="g1328"
         transform="matrix(1.8079585,0,0,1.8079585,-6120.2987,-4183.4979)">
        <path
           id="path892"
           style="color:#000000;fill:#ffffff;stroke-linejoin:round;-inkscape-stroke:none;fill-opacity:1"
           d="m 3429.7852,260.05664 a 10.001,10.001 0 0 0 -2.584,0.24609 10.001,10.001 0 0 0 -7.543,11.88868 l 50.8516,231.84961 c -8.0433,50.54175 -18.4962,83.38434 -10.0821,113.95703 4.2599,15.47831 13.8073,29.4333 29.5254,42.57031 15.4175,12.88578 36.9112,25.45154 66.6641,39.83008 29.3397,32.4749 71.8944,54.602 116.3652,60.33984 44.2125,5.70449 90.6965,-5.23805 125.961,-39.25 41.0031,-6.77869 71.1344,-17.1823 93.0586,-31.875 22.4915,-15.07297 36.0189,-34.95663 42.6464,-57.71289 12.1554,-41.73612 3.4108,-92.32777 -4.375,-152.31445 l -18.1738,16.0625 c 6.9573,54.19372 12.7038,98.52852 3.3457,130.66015 -5.5196,18.95192 -15.6037,33.97353 -34.5781,46.68946 -18.9744,12.71594 -47.2581,22.79932 -88.1738,29.28515 a 10.001,10.001 0 0 0 -5.5372,2.83789 c -30.7955,31.08045 -71.388,40.97154 -111.6152,35.78125 -40.2272,-5.1903 -79.5879,-25.92311 -105.4492,-55.30468 a 10.001,10.001 0 0 0 -3.1758,-2.40625 c -29.9263,-14.37694 -50.5867,-26.64378 -64.1367,-37.96875 -13.55,-11.32497 -19.9624,-21.24579 -23.0684,-32.53125 -6.2119,-22.57092 2.6054,-54.52185 10.8672,-107.32032 a 10.001,10.001 0 0 0 -0.1113,-3.68945 l -46.1914,-210.61328 103.2598,64.25391 a 10.001,10.001 0 0 0 6.8535,1.38476 c 101.0075,-16.0581 198.5231,-2.99499 300.5293,9.73633 a 10.001,10.001 0 0 0 5.0722,-0.68555 l 126.4903,-52.49414 -71.0039,134.95117 17.6933,9.32227 83.9043,-159.46875 a 10.001,10.001 0 0 0 -12.6816,-13.89258 l -149.6406,62.10156 c -99.7291,-12.46388 -197.3928,-25.43702 -299.7364,-9.85546 l -120.3047,-74.86329 a 10.001,10.001 0 0 0 -4.9257,-1.50195 z"
           transform="translate(0,4.5838445)" />
        <path
           style="fill:#ffffff;fill-opacity:1;stroke:none;stroke-width:1px;stroke-linecap:butt;stroke-linejoin:miter;stroke-opacity:1"
           d="m 3527.9156,562.18166 42.6109,16.8649 c 16.7292,46.1214 40.4484,45.6318 63.9976,46.2755 l 11.9704,32.0331 c 0,0 62.9831,-86.6735 -118.5789,-95.1735 z"
           id="path894"
           sodipodi:nodetypes="ccccc" />
        <path
           style="fill:#ffffff;fill-opacity:1;stroke:none;stroke-width:1px;stroke-linecap:butt;stroke-linejoin:miter;stroke-opacity:1"
           d="m 3880.1258,592.94106 -45.0518,8.3934 c -25.2514,42.0644 -48.4379,37.0419 -71.6746,33.1644 l -17.8828,29.1481 c 0,0 -45.2207,-97.1302 134.6092,-70.7059 z"
           id="path896"
           sodipodi:nodetypes="ccccc" />
        <path
           style="fill:#ffffff;fill-opacity:1;stroke:none;stroke-width:1px;stroke-linecap:butt;stroke-linejoin:miter;stroke-opacity:1"
           d="m 3692.9385,715.37226 c -15.7925,-3.6732 -22.0278,-10.7121 -29.2363,4.1074 5.902,0.5487 12.1205,0.6112 15.9283,4.3774 0.059,24.1798 24.3616,28.1471 22.7779,2.4787 4.0032,-3.2853 8.4983,-5.6589 15.9731,-2.5092 -2.1673,-17.5646 -10.8503,-10.4507 -25.443,-8.4543 z"
           id="path898"
           sodipodi:nodetypes="cccccc" />
        <path
           style="color:#000000;fill:#ffffff;-inkscape-stroke:none;fill-opacity:1"
           d="m 3433.1099,271.25146 -7.3652,6.7636 c 0,0 29.0621,31.6444 58.998,69.2617 14.968,18.8087 30.1434,39.1065 41.9473,57.5645 l 32.125,32.41153 c -2.0573,-13.6978 -11.5933,-18.86803 -23.6992,-37.79833 -12.1059,-18.9302 -27.4498,-39.4309 -42.5488,-58.4042 -30.1981,-37.9467 -59.4571,-69.7988 -59.4571,-69.7988 z"
           id="path900"
           sodipodi:nodetypes="ccsccssc" />
        <path
           style="color:#000000;fill:#ffffff;-inkscape-stroke:none;fill-opacity:1"
           d="m 4008.225,297.99676 5.5749,8.3015 c 0,0 -35.6691,23.9517 -73.5876,53.5052 -18.9593,14.7768 -38.4692,30.9525 -54.2703,46.1299 l -41.0812,35.6821 c 5.2103,-12.8341 17.9471,-27.3278 34.1525,-42.8935 16.2054,-15.5657 35.9267,-31.8992 55.0519,-46.8054 38.2506,-29.8122 74.1598,-53.9198 74.1598,-53.9198 z"
           id="path902"
           sodipodi:nodetypes="ccsccssc" />
        <g
           id="g914"
           transform="matrix(1.0763584,0.09091724,-0.09091724,1.0763584,2884.4125,-924.2937)">
          <g
             id="g908"
             transform="matrix(1.288481,0,0,1.1087193,-1703.4773,538.66999)">
            <path
               id="path904"
               style="fill:#ffffff;fill-opacity:1;stroke:none;stroke-width:1px;stroke-linecap:butt;stroke-linejoin:miter;stroke-opacity:1"
               d="m 1971.0918,398.34375 -78.7422,24.52344 -39.3359,157.64648 c 67.4756,63.35272 201.1134,73.65398 285.1543,0 l -39.336,-157.64648 -78.7422,-24.52344 -24.5,21.14453 z"
               sodipodi:nodetypes="cccccccc" />
            <path
               id="path906"
               style="fill:#ffffff;fill-opacity:1;stroke:none;stroke-width:1px;stroke-linecap:butt;stroke-linejoin:miter;stroke-opacity:1"
               d="m 1827.0195,592.78063 -62.414,12.2207 c 137.3398,147.76478 333.9643,135.43034 451.7968,0 l -54.71,-12.2207 c -110.1435,81.05461 -235.0036,76.56686 -334.6728,0 z"
               sodipodi:nodetypes="ccccc" />
          </g>
          <path
             style="fill:none;stroke:#ffffff;stroke-width:10;stroke-linecap:square;stroke-linejoin:miter;stroke-miterlimit:4;stroke-dasharray:none;stroke-opacity:1"
             d="m 638.772,1205.6514 59.86027,-25.3526"
             id="path910"
             sodipodi:nodetypes="cc" />
          <path
             style="fill:none;stroke:#ffffff;stroke-width:10;stroke-linecap:square;stroke-linejoin:miter;stroke-miterlimit:4;stroke-dasharray:none;stroke-opacity:1"
             d="m 1088.7943,1202.8548 -59.8603,-25.3526"
             id="path912"
             sodipodi:nodetypes="cc" />
        </g>
      </g>
      <g
         aria-label="42CTF"
         transform="matrix(23.766838,0,0,23.766838,-32926.98,-18251.25)"
         id="text14333"
         style="font-size:50.8px;line-height:1.25;font-family:Lovelo;-inkscape-font-specification:Lovelo;white-space:pre;fill:#ffffff;stroke-width:1.66987">
        <path
           d="m 1460.5686,646.43126 v -9.0932 h 3.9624 v -7.2644 h -3.9624 v -11.0236 l -7.2644,4.8768 v 6.1468 h -4.6228 l 7.4168,-19.9136 h -7.62 l -10.3124,27.178 h 15.1384 v 9.0932 z"
           id="path837" />
        <path
           d="m 1479.6695,624.94286 -13.5636,21.5392 h 23.9776 v -7.366 h -10.7696 l 7.1628,-11.0744 c 6.096,-8.4836 2.54,-17.8308 -8.128,-18.3896 -3.556,-0.1524 -7.9756,1.27 -10.7696,3.302 l 1.778,7.0104 c 1.1684,-1.016 5.1816,-3.0988 8.382,-2.8956 2.1336,0.1016 3.7592,1.6256 3.7592,3.6576 0,0 0.1016,1.4732 -1.8288,4.2164 z"
           id="path839" />
        <path
           d="m 1519.4459,618.59286 0.8636,-7.4676 c -2.1844,-0.9652 -4.6228,-1.4224 -7.1628,-1.4224 -24.5872,0 -24.638,36.8808 0,36.8808 2.54,0 5.7404,-0.6096 7.9756,-1.524 l -0.9652,-7.5184 c -1.3716,0.7112 -3.8608,1.6256 -7.0104,1.6256 -14.3764,0 -14.3764,-22.1488 0,-22.1488 3.1496,0 4.9276,0.8636 6.2992,1.5748 z"
           id="path841" />
        <path
           d="m 1540.1722,646.48206 v -29.0576 h 9.0424 v -7.2136 h -25.3492 v 7.2136 h 9.0424 v 29.0576 z"
           id="path843" />
        <path
           d="m 1572.8367,617.42446 v -7.2644 h -18.1356 v 36.322 h 7.2644 v -14.5288 h 9.2456 v -7.2644 h -9.2456 v -7.2644 z"
           id="path845" />
      </g>
    </g>
  </g>
</svg>
